<?xml version="1.0" encoding="utf-8"?>
<!-- Generator: Adobe Illustrator 25.4.1, SVG Export Plug-In . SVG Version: 6.00 Build 0)  -->
<svg version="1.1" id="os" xmlns="http://www.w3.org/2000/svg" xmlns:xlink="http://www.w3.org/1999/xlink" x="0px" y="0px"
	 viewBox="0 0 250 250" style="enable-background:new 0 0 250 250;" xml:space="preserve">
<path d="M237.2,204.9c0-0.4-0.1-0.8-0.1-1.2c0-0.5,0-0.8,0-1V196c0-9.4-0.3-18.8-0.8-28.1c-0.5-9.4-0.8-18.8-0.8-28.3
	c0-15.7,0.3-31.3,1-46.9c0.6-15.6,1-31.2,1-46.9c0-1.1,0-3,0-5.8c0-2.7-0.1-5.7-0.2-8.8c-0.1-3.1-0.2-6.1-0.2-8.9s0-4.8,0-5.9
	c0-0.6-0.5-0.8-1.6-0.8c-0.4-0.1-2-0.4-4.8-0.6c-2.8-0.3-4.8-0.5-6.1-0.6c-0.6,0-1.9-0.1-3.9-0.2c-1.9-0.1-4-0.2-6.1-0.3
	c-2.2-0.1-4.2-0.2-6.1-0.3c-1.9-0.1-3.3-0.2-4.2-0.2c-0.2,0.1-0.6,0.2-1.1,0.3s-1.8,0.1-3.7,0.2c-1.9,0.1-4.8,0.1-8.7,0.1
	s-9.4-0.1-16.6-0.2c-7.2-0.1-16.2-0.3-27.1-0.5c-11.2-2.5-17-2.6-20.3-2.1c-0.7,0.1-4,0.6-8.5,1c-2.5,0.2-4.6,0.3-5.8,0.3
	c-1.4-0.2-2.7-0.5-4.1-0.7c-0.9-0.2-1.9-0.3-3.1-0.3c-2,0-3.7,0.3-4.8,0.6c-14.6-0.4-29.2-0.9-43.8-1.3l-4.8-1h-1.3
	c-0.4,0.1-0.8,0.3-1.1,0.5s-0.6,0.4-0.8,0.5c0,0.1-0.3,0.5-0.8,1.2c-0.5,0.6-1,1.3-1.5,2c-0.4,0.7-0.9,1.4-1.5,2
	c-0.5,0.6-0.8,1-0.8,1.2c-0.4,0.3-0.9,0.7-1.5,1.3c-0.5,0.6-1.1,1.2-1.8,1.8c-0.6,0.6-1.3,1.2-1.9,1.8c-0.6,0.6-1.1,0.9-1.3,1
	C32,27,25.8,30.4,18.6,33c0.4,4.9,0.4,9.7-0.2,14.3c-0.5,4.6-1,9.3-1.5,14.1c0,1.8-0.1,4.5-0.3,8.1c-0.2,3.6-0.5,7.6-0.8,12.2
	c-0.3,4.5-0.6,9.3-1,14.4c-0.3,5-0.6,9.8-1,14.4c-0.3,4.5-0.6,8.6-1,12.3c-0.3,3.6-0.5,6.3-0.5,8c0.2,1,0.4,2.2,0.5,3.8
	c0.1,1.5,0.2,3.2,0.3,4.9c0.1,1.8,0.2,3.5,0.3,5.2c0.1,1.8,0.3,3.3,0.5,4.5c0.6,5.7,1.1,11.5,1.3,17.2s0.8,11.5,1.6,17.4
	c-0.2,0.1-0.5,0.6-0.8,1.4c-0.3,0.8-0.6,1.3-0.8,1.6v1.1l1.6,2.1l-0.6,25.2v3.4l-1,19.3l6.5,2.9h156.5c2.2-0.3,4.7-0.5,7.8-0.6
	c3-0.1,6-0.3,9.1-0.5c3-0.2,5.9-0.5,8.6-0.9c2.7-0.4,4.8-1.1,6.3-1.9c3.4-3.4,6.8-6.2,10-8.5s6.1-4.3,8.6-6.1
	c3.5-2.5,5.3-3.8,5.8-4.4C236.1,215.7,238.3,212.1,237.2,204.9z M21.9,51.2c0-2.7,0.1-5.6,0.3-8.7c0.2-3.1,1.2-6,2.9-8.5
	c0-0.1,0.4-0.5,1.3-0.9c0.9-0.5,1.5-0.9,1.9-1.2c0.2-0.1,0.7-0.4,1.5-0.7c0.8-0.3,1.6-0.8,2.4-1.3c0.9-0.5,1.7-0.9,2.4-1.4
	c0.8-0.4,1.2-0.7,1.5-0.8l1.3-0.8c0.4-0.4,1.2-1.1,2.3-2.1s2.2-2,3.4-3s2.3-2,3.2-2.9c1-0.9,1.7-1.6,2.1-2V27
	c-2.4,2.5-4.6,4.9-6.8,7.1c-1.7,2-3.6,4-5.5,6s-3.6,3.7-4.8,5.1c-0.9,1-2.2,2.3-3.9,4.1c-1.7,1.8-3.6,3.1-5.5,4.1V51.2z M20.3,69.1
	c0-2.2,0-4,0.2-5.2c0.1-1.3,0.6-3.1,1.5-5.5c0.6-1.7,1.7-2.7,3.2-2.9c1.5-0.3,3-1,4.5-2.1c0.2-0.1,0.5-0.7,0.8-1.6
	c0.3-0.9,0.6-1.4,0.8-1.4c1.7-3.1,4-6.2,7-9.4c2.9-3.2,6.3-5.9,10.2-8v18.3c-0.9,0.7-2.4,1.9-4.5,3.5c-2.2,1.6-4.5,3.3-7.1,5.1
	s-5,3.6-7.1,5.2c-2.2,1.7-3.7,2.9-4.5,3.6c-0.4,0.3-1.3,1-2.6,2.2c-1.3,1.2-2.1,2.1-2.3,2.8v-4.6H20.3z M18.6,89
	c0-0.6,0.1-1.5,0.3-2.7c0.2-1.3,0.4-2.6,0.5-4s0.3-2.7,0.5-4s0.3-2.2,0.3-2.7h2.9c2.4-3.8,5.8-7.2,10.2-10.4
	c4.4-3.1,8.9-6.1,13.4-8.9h1.6c1.3,1.3,1.9,2.8,1.9,4.5c0,1.8,0,3.2,0,4.3v5.5c-0.6,0.3-2.1,0.9-4.2,2c-2.2,1-3.5,1.8-3.9,2.2
	c-0.9,0.6-2.4,1.5-4.7,2.9s-4.6,2.9-7.1,4.5s-4.8,3.1-7.1,4.6s-3.8,2.5-4.7,3V89H18.6z M17.2,106.2c0.1-2.2,0.5-4.4,1.1-6.6
	s1.6-4.3,2.9-6.3s3.1-3.8,5.5-5.4c0.6-0.4,1.7-1.2,3.2-2.2s3.2-2.2,5-3.5s3.6-2.4,5.3-3.5c1.7-1,2.9-1.8,3.6-2.2
	c0.4-0.3,1.5-0.8,3.1-1.6c1.6-0.8,2.7-1.2,3.4-1.4V89l-0.6,0.4c-0.4,0.3-0.9,0.4-1.3,0.4C48,90.3,46.7,91,44.7,92
	c-2.1,1-3.4,1.7-4,2c-0.6,0.7-1.9,1.9-3.9,3.5c-1.9,1.6-4,3.3-6.3,5.1c-2.3,1.8-4.4,3.6-6.3,5.2c-1.9,1.7-3.2,2.8-3.9,3.4
	c-0.6,0.7-1.2,1-1.6,1l-0.6,0.2h-0.3l-0.6-0.2C17,110.5,17.1,108.5,17.2,106.2z M17,117.5c0.6-0.4,1.6-1.1,2.7-2.1
	c1.2-1,2.4-2,3.7-3.1c1.3-1.1,2.5-2.1,3.7-3s2-1.6,2.4-2c0.2-0.1,0.7-0.6,1.5-1.3c0.8-0.7,1.6-1.5,2.4-2.3c0.9-0.8,1.7-1.6,2.4-2.3
	c0.8-0.7,1.2-1.1,1.5-1.3c0.6-0.6,1.6-1.2,2.9-2c1.3-0.8,2.5-1.5,3.6-2.3s2.6-1.7,4.5-2.8h1.9c0,2.4-0.1,5.2-0.2,8.5
	c-0.1,3.3-0.7,6.2-1.8,8.7h-1.6c-0.4,0.3-1.5,0.8-3.1,1.6c-1.6,0.8-2.6,1.3-3.1,1.6c-0.9,0.6-2.4,1.5-4.7,2.8s-4.6,2.8-7.1,4.3
	s-4.8,3-7.1,4.3s-3.8,2.3-4.7,2.8v-10.1H17z M17.3,140.6c-0.2-1.8-0.3-3.9-0.3-6.3v-2.5l25.2-16.4l8.1-3.1v15.3
	c-4.1,1.1-7.4,2.4-10,3.9s-5,3-7.1,4.7c-2.2,1.7-4.3,3.4-6.5,5.2s-4.8,3.6-8.1,5.5C18,144.6,17.6,142.5,17.3,140.6z M48.4,130.6V147
	c-2.6,1.5-4.8,3.3-6.8,5.1c-1.9,1.9-3.9,3.7-6,5.6c-2,1.8-4.3,3.5-6.6,5c-2.4,1.5-5.3,2.7-8.7,3.6v-16.2c0-0.1,0.6-0.7,1.8-1.7
	c1.2-1,2.6-2.1,4.4-3.5c1.7-1.3,3.4-2.7,5.2-4c1.7-1.3,3.2-2.4,4.5-3.3c0.2-0.1,0.8-0.5,1.6-1.2c0.9-0.6,1.8-1.3,2.7-1.9
	c1-0.6,1.9-1.2,2.7-1.8c0.9-0.6,1.5-0.9,1.9-1.1c0.4-0.3,1-0.5,1.8-0.7C47.7,130.9,48.2,130.7,48.4,130.6z M20.6,177
	c-0.2-0.6-0.3-1-0.3-1.5v-2.3c0-1,0-1.6,0-1.9c0-0.3,0.5-0.9,1.6-1.9c1.5-1.5,3.6-2.8,6.1-3.7c2.6-0.9,4.7-2.1,6.5-3.7
	c0.2-0.1,0.7-0.6,1.5-1.3s1.6-1.4,2.4-2.2c0.9-0.8,1.7-1.5,2.4-2.2c0.8-0.7,1.2-1.1,1.5-1.3c0.4-0.3,1.2-0.8,2.3-1.6
	s1.8-1.3,2.3-1.6h1c0.2,0,0.4-0.1,0.6-0.2v16c-1.9,0-3.3,0.4-4.2,1.2s-2.1,1.6-3.6,2.4c-1.3,0.7-2.9,1.6-4.8,2.6
	c-1.9,1-3.8,2.1-5.7,3c-1.8,1-4.2,2.2-7,3.6h-1.3c-0.2-0.7-0.4-1.3-0.6-1.9C21,178.1,20.8,177.5,20.6,177z M48.4,170.4v14.3
	l-1.3,0.8c-0.9,0.6-1.5,0.9-1.9,1c-0.9,0.4-2.4,1.2-4.5,2.2c-2.2,1-4.5,2.2-7,3.4s-4.8,2.3-7.1,3.4c-2.3,1-3.8,1.8-4.7,2.2v-12.2
	c1.1-0.8,2-1.5,2.9-2.1s1.7-1.1,2.6-1.7c0.9-0.6,1.6-1,2.3-1.3c0.6-0.4,1.9-1.1,3.7-2.1c1.8-1,3.8-2,5.8-3s3.9-2.1,5.7-3
	C46.6,171.4,47.7,170.7,48.4,170.4z M21.7,210c0.1-1,0.2-1.7,0.2-2c0.2-0.7,0.5-1.8,0.8-3.4c0.3-1.5,0.5-2.4,0.5-2.7l8.1-5.2
	c0.9-0.4,2.1-1,3.7-1.9c1.6-0.8,3.2-1.6,4.7-2.3c1.7-0.8,3.6-1.7,5.5-2.7h3.2v9.7L23.2,212h-1.6C21.6,211.7,21.6,211.1,21.7,210z
	 M21.9,231.3v-14.1c1.3-0.8,2.3-1.5,3.1-2.1c0.8-0.6,1.6-1.1,2.4-1.7c0.9-0.6,1.6-1,2.3-1.5c0.2-0.1,1.3-0.7,3.2-1.6
	c1.9-0.9,3.9-1.9,6-2.9c2-1,4-2,5.8-2.9s3-1.5,3.4-1.8l0.3-0.2V213L21.9,231.3z M45.2,234.5c-0.2,0.3-0.4,0.6-0.6,0.9
	c-0.2,0.4-0.5,0.7-1,0.9l-1.3,1.3H22.5c0-1,0.8-2.3,2.4-3.9c1.6-1.6,3.6-3.3,5.8-4.9c2.3-1.7,4.5-3.2,6.6-4.6
	c2.2-1.4,3.8-2.4,4.8-2.9c0.9-0.4,2-1,3.6-1.8c1.5-0.8,2.4-1.2,2.6-1.2c0.9-0.3,2.5-0.5,4.8-0.7c2.4-0.2,4-0.3,4.8-0.3v1.9
	c-1.3,1.7-2.3,3-3.1,4.1c-0.8,1-1.6,2.1-2.4,3.3c-0.9,1.1-1.6,2-2.3,2.7c-0.4,0.3-1.2,1.1-2.4,2.4C46.7,233,45.8,233.9,45.2,234.5z
	 M69.7,236.2v1v0.4h-2.6c-0.6,0-1.8-0.1-3.6-0.2c-1.7-0.1-3.6-0.2-5.7-0.3c-2.1-0.1-4-0.2-5.8-0.3s-3.1-0.2-3.7-0.2v-1
	c0-0.1,0.4-0.6,1.1-1.5c0.8-0.8,1.6-1.9,2.6-3c1-1.2,2-2.4,3.2-3.7s2.1-2.3,2.7-3.1c1.5-1.8,3.6-3.5,6.1-5h7c1.9,0,4,0,6.1,0
	c2.2,0,4.1,0.4,5.8,1c-0.9,0.8-1.9,2-3.2,3.5c-1.3,1.5-2.6,3-3.9,4.5s-2.5,3-3.7,4.5C71,234.2,70.2,235.3,69.7,236.2z M95.6,234.5
	c0,0.1-0.2,0.5-0.6,1c-0.4,0.6-0.8,0.9-1,1c0,0.1-0.2,0.3-0.6,0.5s-0.8,0.4-1,0.5h-20c0.6-1.1,1.5-2.4,2.4-3.8
	c1-1.4,1.7-2.2,2.1-2.5c0.2-0.1,0.9-0.8,1.9-2.1c1.1-1.3,1.9-2.2,2.6-2.9c0.4-0.3,1-0.8,1.8-1.7c0.8-0.8,1.2-1.3,1.5-1.3
	c0.4-0.3,0.9-0.6,1.3-0.9c0.4-0.3,0.9-0.7,1.3-0.9l1.9-1.3h19.1c-0.6,0.6-1.6,1.5-2.7,2.9c-1.2,1.4-2.4,2.8-3.7,4.3
	c-1.3,1.5-2.5,2.9-3.7,4.2C96.8,233,96,233.9,95.6,234.5z M120.5,236.6c-1.1,1.3-2.9,1.9-5.5,1.9s-5,0-7.1,0c-1.7,0-3.5,0-5.3-0.1
	s-2.7-0.9-2.7-2.4c0-1,0.5-2.2,1.5-3.8s2.2-3.1,3.7-4.6s3.1-3,4.8-4.3c1.7-1.3,3.2-2.3,4.5-3c0.4,0,1.3-0.1,2.7-0.2
	c1.4-0.1,2.9-0.3,4.4-0.4c1.5-0.1,2.9-0.2,4.2-0.3c1.3-0.1,2.3-0.1,2.9-0.1h1.6c0.9,0,1.6,0,2.3,0.1c0.6,0.1,1.4,0.4,2.3,0.9
	c-0.4,0.3-1.2,1.1-2.4,2.4c-1.2,1.3-1.9,2.2-2.1,2.6c-0.2,0.3-0.8,1-1.8,2.1s-2,2.3-3.1,3.6s-2.1,2.5-3.1,3.6
	C121.3,235.6,120.7,236.3,120.5,236.6z M130.7,237.7c-2.5-0.1-4.3-0.1-5.3-0.1v-1c0-0.1,0.4-0.7,1.1-1.8c0.8-1.1,1.6-2.2,2.6-3.5
	s2-2.6,3.1-3.9c1.1-1.3,1.9-2.4,2.6-3.3c1.7-2,3.9-3.1,6.5-3.6c2.6-0.4,5.4-0.6,8.4-0.6c0.4,0,1.3,0,2.7,0.1s2.3,0.1,2.7,0.1
	c-3,2.4-6.4,5.2-10.2,8.4s-5.9,6.4-6.3,9.4C135.8,237.9,133.1,237.8,130.7,237.7z M160.6,237.8h-6.8h-3.6c-0.9,0-2,0.1-3.6,0.3
	c-1.5,0.2-3.3,0.2-5.5,0.1c0.6-1.7,2.2-3.6,4.5-5.8c2.4-2.2,4.4-3.9,6.1-5.1l6.8-4.4l4.2-2.7l11,1c0,0.3-0.2,0.6-0.6,1.1
	c-0.4,0.4-0.8,0.8-1,1c-0.4,0.3-1.2,1-2.3,2.3s-2.3,2.7-3.6,4.2s-2.5,3-3.7,4.5C161.5,235.8,160.8,237,160.6,237.8z M181.9,237.6
	c-1.5,0-4,0.1-7.6,0.2c-3.6,0.1-7.1,0.3-10.5,0.4c1.1-1,2.4-2.4,3.9-4.3c1.5-1.9,3.1-3.8,4.7-5.7c1.6-1.9,3.1-3.5,4.5-4.9
	s2.5-2.1,3.4-2.1H199c-3.2,2.4-5.9,5.2-7.9,8.4C189.1,232.9,186,235.5,181.9,237.6z M222.2,221.5c-0.5,0.1-1.5,0.8-2.7,1.9
	c-0.2,0.3-0.8,0.8-1.8,1.6s-2,1.6-3.1,2.5s-2.1,1.8-2.9,2.5c-0.9,0.8-1.4,1.2-1.6,1.4c-3,2.4-5.9,3.7-8.6,4.1
	c-2.7,0.4-6.2,0.5-10.5,0.5c0-0.1,0-0.4,0-0.7s0.1-0.6,0.3-0.7c1.9-2.8,3.8-5.1,5.5-7s3.7-3.4,6-4.6c2.3-1.2,5-2,8.1-2.5
	s7.2-0.7,12.1-0.7C223,220.7,222.7,221.3,222.2,221.5z M85.1,116.3l0.5-0.8L115.3,69c0.4-0.7,1.5-0.6,1.8,0.1
	c5,11.1,9.2,25,7.2,33.6c-0.9,3.5-3.2,8.3-5.8,12.8c-0.3,0.6-0.7,1.3-1.1,1.9c-0.2,0.3-0.5,0.4-0.8,0.4H86
	C85.2,117.8,84.7,117,85.1,116.3z M217.6,132.3c0,0.4-0.3,0.8-0.6,1c-2.3,1-10.2,4.6-13.5,9.2c-8.4,11.6-14.7,28.3-29,28.3H115
	c-21.1,0-38.2-17.2-38.2-38.3v-0.7c0-0.6,0.5-1,1-1H111c0.7,0,1.1,0.6,1.1,1.3c-0.2,2.2,0.2,4.4,1.2,6.4c2,4,6.1,6.5,10.5,6.5h16.4
	v-12.8H124c-0.8,0-1.3-1-0.8-1.6c0.2-0.3,0.4-0.6,0.6-0.9c1.5-2.2,3.7-5.6,5.9-9.4c1.5-2.6,2.9-5.4,4.1-8.2c0.2-0.5,0.4-1,0.6-1.5
	c0.3-0.9,0.6-1.7,0.9-2.6c0.2-0.7,0.4-1.4,0.6-2.1c0.6-2.4,0.8-4.9,0.8-7.5c0-1,0-2.1-0.1-3.1c0-1.1-0.2-2.2-0.3-3.3
	c-0.1-1-0.3-2-0.5-3c-0.2-1.5-0.6-3-0.9-4.5l-0.1-0.6c-0.3-1-0.5-2-0.8-3c-0.9-3.2-2-6.3-3.1-9.2c-0.4-1.2-0.9-2.3-1.3-3.4
	c-0.7-1.7-1.4-3.2-2-4.6c-0.3-0.7-0.6-1.3-0.9-1.9c-0.3-0.7-0.6-1.4-1-2c-0.2-0.5-0.5-1-0.7-1.4l-2-3.7c-0.3-0.5,0.2-1.1,0.7-1
	l12.6,3.4l0,0l0,0l1.7,0.5l1.8,0.5l0.7,0.2v-7.5c0-3.6,2.9-6.5,6.5-6.5c1.8,0,3.4,0.7,4.6,1.9c1.2,1.2,1.9,2.8,1.9,4.6v11.1l1.3,0.4
	c0.1,0,0.2,0.1,0.3,0.2c0.3,0.2,0.8,0.6,1.4,1.1c0.5,0.4,1,0.8,1.6,1.3c1.2,1,2.7,2.2,4.2,3.7c0.4,0.4,0.8,0.7,1.2,1.1
	c2,1.9,4.3,4.1,6.5,6.6c0.6,0.7,1.2,1.4,1.8,2.1c0.6,0.8,1.3,1.5,1.8,2.2c0.7,1,1.5,2,2.2,3.1c0.3,0.5,0.7,1,1,1.5
	c0.9,1.3,1.7,2.7,2.4,4.1c0.3,0.6,0.6,1.3,0.9,2c0.8,1.9,1.5,3.8,1.9,5.7c0.1,0.4,0.2,0.9,0.3,1.3V98c0.1,0.6,0.2,1.2,0.2,1.8
	c0.2,1.9,0.1,3.9-0.3,5.9c-0.2,0.8-0.4,1.6-0.7,2.5c-0.3,0.8-0.6,1.6-0.9,2.4c-0.7,1.6-1.5,3.3-2.5,4.8c-0.3,0.6-0.7,1.2-1.1,1.7
	c-0.4,0.6-0.8,1.2-1.2,1.7c-0.5,0.7-1.1,1.4-1.6,2.1s-1,1.4-1.6,2c-0.8,0.9-1.5,1.8-2.3,2.7c-0.5,0.6-1,1.1-1.5,1.6
	c-0.5,0.6-1,1.1-1.5,1.5c-0.8,0.8-1.4,1.4-2,1.9l-1.3,1.2c-0.2,0.2-0.4,0.3-0.7,0.3h-10v12.8h12.6c2.8,0,5.5-1,7.7-2.8
	c0.7-0.6,4-3.4,7.8-7.7c0.1-0.1,0.3-0.2,0.5-0.3l34.8-10c0.6-0.2,1.3,0.3,1.3,1v7.2H217.6z"/>
</svg>
